<?xml version="1.0" encoding="UTF-8"?>
<svg width="800px" height="600px" viewBox="0 0 800 600" version="1.1" xmlns="http://www.w3.org/2000/svg">
    <g stroke="none" stroke-width="1" fill="none" fill-rule="evenodd">
        <!-- Background Circuit Pattern -->
        <path d="M100,100 L200,100 L200,200 L300,200" stroke="#E5E7EB" stroke-width="2"/>
        <path d="M500,400 L600,400 L600,500 L700,500" stroke="#E5E7EB" stroke-width="2"/>
        <path d="M150,300 L250,300 L250,400" stroke="#E5E7EB" stroke-width="2"/>
        
        <!-- Main Video Frame -->
        <rect x="250" y="150" width="300" height="200" rx="8" fill="#3B82F6" opacity="0.1"/>
        <rect x="270" y="170" width="260" height="160" rx="4" stroke="#3B82F6" stroke-width="2"/>
        
        <!-- AI Processing Elements -->
        <circle cx="400" cy="250" r="40" stroke="#2563EB" stroke-width="3" opacity="0.7"/>
        <circle cx="400" cy="250" r="20" fill="#2563EB" opacity="0.3"/>
        
        <!-- Floating Elements -->
        <rect x="150" y="200" width="40" height="40" rx="8" fill="#3B82F6" opacity="0.2"/>
        <rect x="600" y="350" width="40" height="40" rx="8" fill="#3B82F6" opacity="0.2"/>
        <rect x="500" y="150" width="30" height="30" rx="6" fill="#2563EB" opacity="0.2"/>
        
        <!-- Connection Lines -->
        <path d="M400,290 L400,350 L500,350 L500,400" stroke="#3B82F6" stroke-width="2" stroke-dasharray="4,4"/>
        <path d="M400,210 L400,150 L300,150 L300,100" stroke="#3B82F6" stroke-width="2" stroke-dasharray="4,4"/>
        
        <!-- Decorative Dots -->
        <circle cx="200" cy="400" r="5" fill="#3B82F6" opacity="0.5"/>
        <circle cx="600" cy="200" r="5" fill="#3B82F6" opacity="0.5"/>
        <circle cx="400" cy="450" r="5" fill="#3B82F6" opacity="0.5"/>
    </g>
</svg> 